<?xml version="1.0" standalone="no"?>
<!DOCTYPE svg PUBLIC "-//W3C//DTD SVG 20010904//EN"
 "http://www.w3.org/TR/2001/REC-SVG-20010904/DTD/svg10.dtd">
<svg version="1.0" xmlns="http://www.w3.org/2000/svg"
 width="512.000000pt" height="512.000000pt" viewBox="0 0 512.000000 512.000000"
 preserveAspectRatio="xMidYMid meet">

<g transform="translate(0.000000,512.000000) scale(0.100000,-0.100000)"
fill="#FFFFFF" stroke="none">
<path d="M51 5106 c-53 -29 -50 77 -51 -1896 0 -2040 -6 -1866 66 -1896 29
-12 39 -12 68 0 72 30 66 -137 66 1833 l0 1773 1730 0 1730 0 0 -1224 0 -1224
-307 -478 -307 -477 -41 -204 -40 -204 -90 -2 c-83 -2 -96 -5 -160 -40 -38
-20 -73 -37 -77 -37 -4 0 -8 19 -8 43 0 23 -6 67 -14 98 -45 191 -199 269
-381 194 -115 -48 -325 -222 -435 -360 -86 -108 -160 -234 -160 -272 0 -66 78
-113 144 -87 9 4 51 58 93 122 154 233 446 473 511 419 39 -32 46 -76 46 -290
l1 -209 28 -24 c30 -26 83 -32 117 -14 10 5 35 36 54 69 50 81 144 167 204
185 26 7 50 12 55 9 4 -2 7 -53 7 -113 l0 -108 31 -26 c63 -53 71 -50 412 194
170 121 310 220 313 220 2 0 4 -198 4 -440 l0 -440 -1729 0 -1730 0 -3 186 -3
186 -28 24 c-38 33 -96 33 -134 0 l-28 -24 -3 -243 c-2 -171 0 -251 9 -271 26
-62 -106 -58 1918 -58 1309 0 1857 3 1874 11 13 6 31 23 40 39 15 25 17 90 17
677 l0 650 601 934 c331 514 612 957 626 986 36 77 41 173 15 259 -67 217
-289 325 -505 244 -104 -39 -131 -73 -443 -559 l-289 -450 -5 1132 c-5 1224
-2 1161 -57 1186 -17 8 -580 11 -1876 11 -1518 -1 -1856 -3 -1876 -14z m4790
-1510 c72 -48 98 -141 59 -221 -35 -73 -25 -75 -181 25 -79 51 -147 95 -152
99 -4 4 6 27 23 50 61 83 166 103 251 47z m-233 -361 c78 -49 142 -93 142 -97
0 -12 -1160 -1813 -1170 -1816 -7 -3 -270 160 -298 183 -3 3 1065 1672 1140
1783 17 24 33 42 37 40 4 -2 71 -43 149 -93z m-1250 -2015 c39 -25 71 -47 71
-50 0 -5 -274 -200 -281 -200 -4 0 42 255 57 318 l6 23 37 -23 c21 -13 70 -43
110 -68z"/>
<path d="M700 4622 c-19 -19 -30 -44 -35 -73 -3 -24 -5 -327 -3 -672 l3 -629
33 -29 32 -29 585 0 c415 0 591 3 609 11 57 26 57 18 54 734 l-3 657 -33 29
-32 29 -591 0 -591 0 -28 -28z m1080 -527 c0 -328 -4 -379 -25 -345 -4 6 -38
26 -76 45 -38 20 -69 37 -69 39 0 2 10 25 22 52 17 37 22 69 23 130 0 73 -3
88 -35 149 -66 129 -179 192 -324 183 -236 -16 -382 -269 -277 -480 l18 -38
-54 -25 c-30 -13 -67 -33 -83 -45 -15 -11 -31 -20 -34 -20 -3 0 -6 160 -6 355
l0 355 460 0 460 0 0 -355z m-389 38 c43 -25 74 -90 65 -137 -15 -77 -96 -131
-170 -112 -68 17 -115 98 -96 166 11 37 44 78 75 90 34 14 95 11 126 -7z m96
-477 c142 -38 241 -123 273 -235 l9 -31 -445 0 c-500 0 -463 -7 -424 77 40 90
150 167 270 192 30 6 64 13 75 15 34 8 188 -3 242 -18z"/>
<path d="M2379 4421 c-48 -49 -35 -126 26 -156 28 -13 91 -15 415 -15 261 0
388 4 403 11 63 32 77 111 28 160 l-29 29 -407 0 -407 0 -29 -29z"/>
<path d="M2379 3981 c-40 -40 -40 -89 0 -133 l29 -33 379 -3 c208 -2 393 0
412 3 79 15 109 109 52 166 l-29 29 -407 0 -407 0 -29 -29z"/>
<path d="M2379 3541 c-40 -40 -40 -89 0 -133 l29 -33 384 -3 c257 -2 395 0
420 8 70 20 91 108 39 161 l-29 29 -407 0 -407 0 -29 -29z"/>
<path d="M734 2901 c-49 -30 -54 -59 -54 -335 0 -290 5 -311 74 -334 31 -10
293 -12 1253 -10 l1215 3 29 33 29 32 0 276 c0 305 -3 323 -61 343 -23 8 -382
11 -1243 11 -1173 0 -1212 -1 -1242 -19z m2346 -331 l0 -150 -1097 2 -1098 3
-3 134 c-1 74 0 141 2 148 4 11 211 13 1101 13 l1095 0 0 -150z"/>
<path d="M749 1901 c-40 -40 -40 -89 0 -133 l29 -33 730 0 730 0 26 24 c31 30
42 73 26 112 -26 61 0 59 -790 59 l-722 0 -29 -29z"/>
<path d="M749 1481 c-40 -40 -40 -89 0 -133 l29 -33 365 0 365 0 26 24 c47 44
44 112 -8 153 -19 16 -55 18 -384 18 l-364 0 -29 -29z"/>
<path d="M51 1046 c-30 -17 -50 -52 -51 -89 0 -41 57 -97 100 -97 41 0 100 56
100 94 0 80 -80 130 -149 92z"/>
</g>
</svg>
